<?xml version="1.0" standalone="no"?>
<!DOCTYPE svg PUBLIC "-//W3C//DTD SVG 20010904//EN"
 "http://www.w3.org/TR/2001/REC-SVG-20010904/DTD/svg10.dtd">
<svg version="1.0" xmlns="http://www.w3.org/2000/svg"
 width="225.000000pt" height="225.000000pt" viewBox="0 0 225.000000 225.000000"
 preserveAspectRatio="xMidYMid meet">
<metadata>
Created by potrace 1.14, written by Peter Selinger 2001-2017
</metadata>
<g transform="translate(0.000000,225.000000) scale(0.100000,-0.100000)"
fill="#000000" stroke="none">
<path d="M188 2209 c-33 -19 -49 -126 -27 -187 23 -66 -35 -62 964 -62 603 0
913 3 926 10 60 33 67 209 9 240 -26 14 -1849 13 -1872 -1z"/>
<path d="M184 1846 c-25 -21 -28 -32 -34 -107 -5 -68 -20 -121 -74 -274 -37
-104 -68 -202 -68 -218 -1 -41 37 -77 82 -77 20 0 41 5 47 11 9 9 12 -132 15
-551 l3 -562 28 -24 28 -24 590 0 589 0 0 440 0 440 220 0 220 0 0 -440 0
-440 104 0 c96 0 107 2 133 24 l28 24 3 561 c3 546 3 561 22 551 30 -16 85
-12 102 8 33 36 29 57 -44 268 -55 160 -73 227 -78 286 -5 63 -11 83 -30 103
l-23 25 -918 0 -918 0 -27 -24z m303 -273 c-4 -16 -22 -103 -41 -195 -19 -92
-39 -176 -45 -187 -21 -38 -62 -61 -107 -61 -36 0 -51 6 -82 34 -49 45 -48 68
13 274 l48 162 110 0 110 0 -6 -27z m373 2 c0 -83 -33 -361 -45 -385 -21 -40
-53 -60 -98 -60 -51 0 -93 23 -113 62 -18 35 -17 58 18 276 l21 132 108 0 109
0 0 -25z m384 -159 c3 -106 2 -195 -3 -209 -17 -43 -68 -77 -117 -77 -36 0
-51 6 -81 33 -41 38 -40 31 -35 295 l2 142 113 0 114 0 7 -184z m385 57 c12
-71 25 -160 28 -200 l6 -72 -36 -36 c-29 -29 -42 -35 -76 -35 -52 0 -96 22
-115 58 -11 22 -46 316 -46 391 0 20 5 21 108 21 l108 0 23 -127z m374 45 c60
-194 79 -270 72 -295 -3 -15 -21 -41 -40 -60 -28 -28 -40 -33 -80 -33 -40 0
-52 5 -80 33 -21 21 -36 48 -40 73 -4 21 -22 110 -41 197 -19 87 -34 160 -34
163 0 2 49 4 109 4 l109 0 25 -82z m-881 -928 l-3 -310 -87 0 c-48 0 -205 3
-349 7 l-263 6 0 304 0 303 353 0 352 0 -3 -310z"/>
</g>
</svg>
